<svg width="90" height="109" viewBox="0 0 90 109" fill="none" xmlns="http://www.w3.org/2000/svg">
<path d="M89.9998 27.7789L68.9424 41.0157V67.1959L89.9998 80.2874V27.7789Z" fill="#ABA9A9"/>
<path d="M68.9424 13.9633V38.2065L88.8903 26.0834L68.9424 13.9633Z" fill="#7CB291"/>
<path d="M46.124 84.0125V108.256L66.0746 96.1327L46.124 84.0125Z" fill="#7CB291"/>
<path d="M67.0031 13.9633V38.2065L47.0552 26.0834L67.0031 13.9633Z" fill="#629A7C"/>
<path d="M45.853 0V24.2432L65.8036 12.1202L45.853 0Z" fill="#7CB291"/>
<path d="M43.9137 0V24.2432L23.9658 12.1202L43.9137 0Z" fill="#629A7C"/>
<path d="M45.853 27.7789V52.0221L65.8036 39.8991L45.853 27.7789Z" fill="#ABA9A9"/>
<path d="M0 27.7789V52.0221L19.9479 39.8991L0 27.7789Z" fill="#80BBD9"/>
<path d="M43.9137 27.7789V52.0221L23.9658 39.8991L43.9137 27.7789Z" fill="#807F80"/>
<path d="M20.9186 13.9633V38.2065L0.970703 26.0834L20.9186 13.9633Z" fill="#497A96"/>
<path d="M0 55.5289V79.7693L19.9479 67.6491L0 55.5289Z" fill="#80BBD9"/>
<path d="M20.9186 41.7062V65.9494L0.970703 53.8293L20.9186 41.7062Z" fill="#497A96"/>
<path d="M22.4409 93.7864L42.5136 81.8058L22.62 69.5859L22.4409 93.7864Z" fill="#80BBD9"/>
<path d="M20.6937 94.2552L0.650879 82.2205L20.5743 70.0547L20.6937 94.2552Z" fill="#497A96"/>
<path d="M43.6908 107.977L23.6479 95.9423L43.5714 83.7766L43.6908 107.977Z" fill="#497A96"/>
<path d="M68.9424 69.5266V93.7698L88.8903 81.6496L68.9424 69.5266Z" fill="#7CB291"/>
<path d="M23.2271 13.9633V38.2065L43.1749 26.0834L23.2271 13.9633Z" fill="#7CB291"/>
<path d="M67.0031 69.5266V93.7698L47.0552 81.6496L67.0031 69.5266Z" fill="#629A7C"/>
<path d="M22.4409 41.7062V67.4164L43.5228 80.1433V54.399L22.4409 41.7062Z" fill="#ABA9A9"/>
<path d="M66.6387 41.8937V67.6039L45.5596 80.3308V54.5836L66.6387 41.8937Z" fill="#807F80"/>
</svg>
