<svg xmlns="http://www.w3.org/2000/svg" viewBox="0 0 1585 496" width="1585" height="496">
	<style>
		tspan { white-space:pre }
		.shp0 { fill: #aba9a9 } 
		.shp1 { fill: #7cb291 } 
		.shp2 { fill: #629a7c } 
		.shp3 { fill: #80bbd9 } 
		.shp4 { fill: #807f80 } 
		.shp5 { fill: #497a96 } 
	</style>
	<g >
		<path fill="#ffffff" aria-label="LOWCOST"  d="M551.97 175.86L551.97 302.82L618.54 302.82L618.54 328L520.63 328L520.63 175.86L551.97 175.86ZM754.79 248.59L754.79 255.38Q754.79 277.84 746.85 294.77Q738.91 311.7 724.07 320.89Q709.34 330.09 690.22 330.09Q671.3 330.09 656.47 321Q641.63 311.91 633.48 295.08Q625.33 278.16 625.22 256.21L625.22 248.69Q625.22 226.22 633.27 209.19Q641.42 192.06 656.15 182.96Q670.99 173.77 690.01 173.77Q709.03 173.77 723.76 182.96Q738.6 192.06 746.64 209.19Q754.79 226.22 754.79 248.59ZM723.03 255.9L723.03 248.48Q723.03 224.55 714.46 212.12Q705.89 199.68 690.01 199.68Q674.23 199.68 665.66 212.01Q657.09 224.24 656.99 247.96L656.99 255.38Q656.99 278.68 665.56 291.53Q674.13 304.38 690.22 304.38Q706 304.38 714.46 292.05Q722.92 279.62 723.03 255.9ZM871.09 175.86L896.07 284.11L916.55 175.86L947.79 175.86L914.04 328L882.48 328L857.72 226.22L832.95 328L801.4 328L767.65 175.86L798.89 175.86L819.47 283.9L844.55 175.86L871.09 175.86ZM1060.54 279.72L1080.7 279.72Q1077.88 303.86 1062.84 317.03Q1047.89 330.09 1023.02 330.09Q996.07 330.09 979.77 310.76Q963.57 291.43 963.57 259.04L963.57 244.41Q963.57 223.19 971.09 207.1Q978.72 191.01 992.62 182.44Q1006.52 173.77 1024.8 173.77Q1049.04 173.77 1063.67 187.35Q1078.3 200.83 1080.7 224.76L1060.54 224.76Q1057.93 206.58 1049.15 198.43Q1040.48 190.28 1024.8 190.28Q1005.57 190.28 994.6 204.49Q983.74 218.7 983.74 244.93L983.74 259.66Q983.74 284.43 994.08 299.06Q1004.43 313.68 1023.02 313.68Q1039.74 313.68 1048.63 306.16Q1057.61 298.53 1060.54 279.72ZM1225.11 247.23L1225.11 256.84Q1225.11 279.2 1217.59 295.92Q1210.07 312.54 1196.27 321.31Q1182.48 330.09 1164.09 330.09Q1146.12 330.09 1132.22 321.31Q1118.32 312.43 1110.59 296.13Q1102.96 279.72 1102.75 258.2L1102.75 247.23Q1102.75 225.28 1110.38 208.46Q1118.01 191.64 1131.91 182.76Q1145.91 173.77 1163.88 173.77Q1182.17 173.77 1196.06 182.65Q1210.07 191.43 1217.59 208.25Q1225.11 224.97 1225.11 247.23ZM1205.15 258.3L1205.15 247.02Q1205.15 219.96 1194.29 205.54Q1183.42 191.01 1163.88 191.01Q1144.86 191.01 1133.89 205.54Q1123.02 219.96 1122.71 245.66L1122.71 256.84Q1122.71 283.07 1133.68 298.12Q1144.76 313.06 1164.09 313.06Q1183.52 313.06 1194.18 298.95Q1204.84 284.74 1205.15 258.3ZM1300.03 260.18Q1274.22 252.77 1262.42 242Q1250.71 231.14 1250.71 215.25Q1250.71 197.28 1265.03 185.58Q1279.45 173.77 1302.44 173.77Q1318.11 173.77 1330.34 179.83Q1342.67 185.89 1349.35 196.55Q1356.15 207.21 1356.15 219.85L1335.98 219.85Q1335.98 206.06 1327.2 198.22Q1318.42 190.28 1302.44 190.28Q1287.6 190.28 1279.24 196.86Q1270.98 203.34 1270.98 214.94Q1270.98 224.24 1278.82 230.72Q1286.76 237.09 1305.68 242.42Q1324.69 247.75 1335.35 254.23Q1346.11 260.6 1351.23 269.17Q1356.46 277.74 1356.46 289.34Q1356.46 307.83 1342.04 319.01Q1327.62 330.09 1303.48 330.09Q1287.81 330.09 1274.22 324.13Q1260.64 318.07 1253.22 307.62Q1245.91 297.17 1245.91 283.9L1266.07 283.9Q1266.07 297.7 1276.21 305.74Q1286.45 313.68 1303.48 313.68Q1319.36 313.68 1327.83 307.21Q1336.29 300.73 1336.29 289.55Q1336.29 278.37 1328.46 272.31Q1320.62 266.14 1300.03 260.18ZM1487.28 175.86L1487.28 192.37L1438.38 192.37L1438.38 328L1418.42 328L1418.42 192.37L1369.63 192.37L1369.63 175.86L1487.28 175.86Z" />
	</g>
	<g >
		<path class="shp0" d="M422.28 168.85L344.66 215.32L344.66 307.23L422.28 353.19L422.28 168.85Z" />
	</g>
	<g >
		<path class="shp1" d="M344.66 120.34L344.66 205.45L418.19 162.89L344.66 120.34Z" />
	</g>
	<g >
		<path class="shp1" d="M260.55 366.27L260.55 451.38L334.09 408.82L260.55 366.27Z" />
	</g>
	<g >
		<path class="shp2" d="M337.51 120.34L337.51 205.45L263.98 162.89L337.51 120.34Z" />
	</g>
	<g >
		<path class="shp1" d="M259.55 71.32L259.55 156.43L333.09 113.87L259.55 71.32Z" />
	</g>
	<g >
		<path class="shp2" d="M252.4 71.32L252.4 156.43L178.87 113.87L252.4 71.32Z" />
	</g>
	<g >
		<path class="shp0" d="M259.55 168.85L259.55 253.96L333.09 211.4L259.55 168.85Z" />
	</g>
	<g >
		<path class="shp3" d="M90.53 168.85L90.53 253.96L164.06 211.4L90.53 168.85Z" />
	</g>
	<g >
		<path class="shp4" d="M252.4 168.85L252.4 253.96L178.87 211.4L252.4 168.85Z" />
	</g>
	<g >
		<path class="shp5" d="M167.64 120.34L167.64 205.45L94.11 162.89L167.64 120.34Z" />
	</g>
	<g >
		<path class="shp3" d="M90.53 266.26L90.53 351.36L164.06 308.81L90.53 266.26Z" />
	</g>
	<g >
		<path class="shp5" d="M167.64 217.74L167.64 302.85L94.11 260.3L167.64 217.74Z" />
	</g>
	<g >
		<path class="shp3" d="M173.25 400.56L247.24 358.5L173.91 315.6L173.25 400.56Z" />
	</g>
	<g >
		<path class="shp5" d="M166.81 402.23L92.93 359.98L166.37 317.27L166.81 402.23Z" />
	</g>
	<g >
		<path class="shp5" d="M251.58 450.4L177.7 408.15L251.14 365.44L251.58 450.4Z" />
	</g>
	<g >
		<path class="shp1" d="M344.66 315.4L344.66 400.51L418.19 357.96L344.66 315.4Z" />
	</g>
	<g >
		<path class="shp1" d="M176.15 120.34L176.15 205.45L249.68 162.89L176.15 120.34Z" />
	</g>
	<g >
		<path class="shp2" d="M337.51 315.4L337.51 400.51L263.98 357.96L337.51 315.4Z" />
	</g>
	<g >
		<path class="shp0" d="M173.25 217.74L173.25 308L250.96 352.68L250.96 262.3L173.25 217.74Z" />
	</g>
	<g >
		<path class="shp4" d="M336.17 218.39L336.17 308.65L258.47 353.33L258.47 262.94L336.17 218.39Z" />
	</g>
	<g >
	</g>
	<g >
	</g>
</svg>